<?xml version="1.0" encoding="iso-8859-1"?>
<!-- Generator: Adobe Illustrator 16.0.0, SVG Export Plug-In . SVG Version: 6.00 Build 0)  -->
<!DOCTYPE svg PUBLIC "-//W3C//DTD SVG 1.1//EN" "http://www.w3.org/Graphics/SVG/1.1/DTD/svg11.dtd">
<svg version="1.1" id="Capa_1" xmlns="http://www.w3.org/2000/svg" xmlns:xlink="http://www.w3.org/1999/xlink" x="0px" y="0px"
	 width="314.167px" height="314.167px" viewBox="0 0 314.167 314.167" style="enable-background:new 0 0 314.167 314.167;"
	 xml:space="preserve">
<g>
	<g>
		<path d="M282.384,113.976c16.353-44.524-8.238-107.48-49.378-84.738c1.642-7.726,2.63-12.381,2.63-12.381L223.043,0H159.74h-5.629
			H90.809L78.216,16.857c0,0,0.979,4.57,2.589,12.168c-40.923-22.18-65.327,40.558-49.021,84.95
			c15.679,42.688,59.191,51.693,84.077,83c0.042,0.217,0.093,0.497,0.135,0.704c1.812,9.548,6.582,16.083,12.308,20.608
			c0.611,1.005,1.284,1.844,2.061,2.377h-1.626h-10.92c-3.661,0-6.628,3.434-6.628,7.658c0,4.236,2.967,7.664,6.628,7.664h1.056
			c-4.085,1.703-7.021,6.183-7.021,11.49l-5.302,39.846c0,6.768,4.743,12.257,10.604,12.257h60.75
			c10.899,9.098,24.896,14.587,40.156,14.587c34.601,0,62.743-28.148,62.743-62.744c0-34.595-28.143-62.743-62.743-62.743
			c-4.723,0-9.315,0.569-13.743,1.564C229.682,164.146,267.896,153.42,282.384,113.976z M85.248,149.226
			c-13.505-9.021-26.491-18.634-35.294-33.889C33.555,86.922,44.02,21.681,80.67,50.08c1.708,1.325,3.392,1.719,4.93,1.496
			c6.944,32.775,17.274,81.693,24.161,115.107C101.994,160.413,93.637,154.831,85.248,149.226z M218.062,204.582
			c25.87,0,46.836,20.972,46.836,46.836c0,25.865-20.972,46.836-46.836,46.836c-4.878,0-9.579-0.751-14.007-2.138
			c-19.024-5.955-32.834-23.717-32.834-44.703c0-15.421,7.487-29.055,18.982-37.594
			C197.996,208.046,207.617,204.582,218.062,204.582z M228.92,149.226c-8.528,5.693-17.021,11.373-24.886,17.773
			c6.892-33.448,17.274-82.617,24.238-115.493c1.621,0.329,3.407-0.01,5.23-1.426c36.65-28.399,47.115,36.837,30.716,65.257
			C255.411,130.587,242.43,140.205,228.92,149.226z"/>
		<path d="M184.409,251.423c0,4.076,3.309,7.39,7.384,7.39h11.708h7.171v18.874c0,4.075,3.31,7.39,7.385,7.39
			c4.08,0,7.389-3.314,7.389-7.39v-18.874h18.875c4.08,0,7.389-3.313,7.389-7.39c0-4.074-3.309-7.389-7.389-7.389h-18.875v-18.88
			c0-4.08-3.309-7.384-7.389-7.384c-4.075,0-7.385,3.304-7.385,7.384v18.88h-9.154h-9.725
			C187.718,244.034,184.409,247.338,184.409,251.423z"/>
	</g>
</g>
<g>
</g>
<g>
</g>
<g>
</g>
<g>
</g>
<g>
</g>
<g>
</g>
<g>
</g>
<g>
</g>
<g>
</g>
<g>
</g>
<g>
</g>
<g>
</g>
<g>
</g>
<g>
</g>
<g>
</g>
</svg>
