<svg height="512pt" viewBox="0 -38 512.00031 512" width="512pt" xmlns="http://www.w3.org/2000/svg"><path d="m186.351562 333.0625c-.480468 0-.960937-.035156-1.449218-.105469l-.96875-.140625c-4.976563-.722656-8.5625-4.996094-8.5625-9.882812-.003906-.476563.03125-.964844.105468-1.453125.792969-5.464844 5.871094-9.246094 11.332032-8.457031l.96875.140624c4.976562.722657 8.5625 4.996094 8.5625 9.882813 0 .476563-.03125.964844-.105469 1.453125-.722656 4.976562-4.996094 8.5625-9.882813 8.5625zm0 0"/><path d="m511.828125 296.742188c-1.097656-12.527344-7.246094-23.699219-16.875-30.648438-8.902344-6.425781-19.660156-8.570312-30.289063-6.042969-5.457031 1.292969-19.714843 5.28125-37.761718 10.328125-26.453125 7.394532-61.589844 17.222656-79.167969 21.3125-5.378906-8.847656-14.144531-15.230468-24.613281-16.753906-3.964844-.574219-11.238282-1.601562-20.382813-2.890625-31.410156-4.433594-96.773437-13.652344-105.191406-15.773437-5.503906-1.386719-10.964844-3.441407-16.746094-5.613282-2-.753906-4-1.503906-5.992187-2.226562-4.28125-1.550782-8.933594-3.09375-13.921875-3.839844-12.824219-1.929688-28.246094 1.269531-40.238281 8.351562-5.660157 3.34375-10.8125 7.234376-14.664063 10.246094-3.855469 3.007813-16.265625 11.496094-16.992187 12.511719l-82.628907 32.261719c-3.835937 1.496094-6.363281 5.195312-6.363281 9.3125v109.230468c0 3.269532 1.597656 6.332032 4.273438 8.199219 1.703124 1.1875 3.707031 1.800781 5.726562 1.800781 1.160156 0 2.328125-.199218 3.445312-.609374 0 0 93.039063-33.90625 94.164063-34.597657l31.023437-19.0625c4.542969-2.4375 9.632813-3.011719 14.351563-1.613281.273437.078125.546875.144531.824219.203125l122.136718 25.152344c5.574219 1.609375 11.28125 2.414062 17.007813 2.414062 7.1875 0 14.398437-1.265625 21.40625-3.792969l169.90625-62.511718c17.714844-6.398438 29.304687-25.472656 27.5625-45.347656zm-491.828125 115.445312v-88.078125l67.574219-26.382813 4.464843 88.019532zm457.414062-88.886719-169.898437 62.507813c-8.632813 3.113281-17.734375 3.414062-26.316406.871094-.269531-.078126-.542969-.148438-.820313-.203126l-122.152344-25.15625c-9.820312-2.785156-20.25-1.546874-29.421874 3.496094-.140626.074219-.277344.15625-.414063.242188l-16.847656 10.351562-4.484375-88.421875c4.230468-2.816406 7.996094-5.507812 11.234375-8.039062 3.382812-2.640625 7.859375-6.027344 12.527343-8.785157 7.964844-4.703124 18.851563-7.035156 27.09375-5.792968 3.074219.460937 6.25 1.476562 10.078126 2.863281 1.921874.699219 3.84375 1.417969 5.765624 2.144531 6.046876 2.273438 12.300782 4.625 18.898438 6.285156 8.726562 2.199219 57.785156 9.203126 107.285156 16.1875 9.105469 1.28125 16.347656 2.304688 20.296875 2.878907 8.488281 1.234375 14.355469 10.371093 13.074219 20.367187-.679688 5.316406-3.421875 10.15625-7.523438 13.269532-3.476562 2.644531-7.554687 3.78125-11.480468 3.214843l-70.867188-10.316406c-5.460937-.792969-10.542968 2.992187-11.335937 8.457031-.796875 5.464844 2.988281 10.539063 8.453125 11.335938l70.867187 10.3125c1.640625.238281 3.28125.355468 4.917969.355468 7.628906 0 15.136719-2.5625 21.546875-7.433593 8.34375-6.339844 13.90625-16.058594 15.261719-26.660157.289062-2.273437.386718-4.527343.304687-6.742187 18.308594-4.328125 51.453125-13.597656 78.828125-21.25 17.132813-4.792969 31.929688-8.929687 37-10.132813 4.886719-1.164062 9.847656-.167968 13.960938 2.804688 4.910156 3.542969 8.066406 9.4375 8.65625 16.171875.964844 11-5.105469 21.425781-14.488282 24.816406zm0 0"/><path d="m374.574219 254.027344c-70.019531 0-126.984375-56.976563-126.984375-127.011719s56.964844-127.015625 126.984375-127.015625c70.015625 0 126.980469 56.980469 126.980469 127.015625s-56.964844 127.011719-126.980469 127.011719zm0-234.027344c-58.992188 0-106.984375 48.003906-106.984375 107.011719 0 59.007812 47.992187 107.015625 106.984375 107.015625 58.988281 0 106.980469-48.007813 106.980469-107.015625 0-59.007813-47.992188-107.011719-106.980469-107.011719zm0 0"/><path d="m393.351562 189.191406h-37.5625c-5.519531 0-10-4.480468-10-10v-23.390625h-23.378906c-5.523437 0-10-4.480469-10-10v-37.574219c0-5.519531 4.476563-10 10-10h23.378906v-23.390624c0-5.519532 4.480469-10 10-10h37.5625c5.523438 0 10 4.480468 10 10v23.390624h23.382813c5.523437 0 10 4.480469 10 10v37.574219c0 2.648438-1.054687 5.195313-2.929687 7.070313s-4.417969 2.929687-7.070313 2.929687h-23.382813v23.390625c.003907 5.523438-4.476562 10-10 10zm-27.558593-20h17.5625v-23.390625c0-5.523437 4.476562-10 10-10h23.378906v-17.574219h-23.378906c-5.523438 0-10-4.476562-10-10v-23.390624h-17.5625v23.390624c0 5.523438-4.480469 10-10 10h-23.382813v17.574219h23.382813c5.519531 0 10 4.476563 10 10zm0 0"/></svg>