<svg id="Capa_1" enable-background="new 0 0 512.006 512.006" height="512" viewBox="0 0 512.006 512.006" width="512" xmlns="http://www.w3.org/2000/svg"><path d="m15.003 180.005h57.459l56.833 28.417c2.083 1.041 4.379 1.583 6.708 1.583h52.86c.004.301.019.602.025.903 0 0-3.295 3.295-3.309 3.309-13.883 13.992-18.021 17.725-25.277 25.789h-84.299c-8.284 0-15 6.716-15 15v50.661l-52.62 25.879c-7.434 3.656-10.496 12.646-6.84 20.08 3.637 7.397 12.611 10.514 20.08 6.84l61-30c5.13-2.523 8.38-7.743 8.38-13.46v-45.01h46.008c-29.605 44.354-46.008 97.6-46.008 152.01 0 49.626 40.374 90 90 90 31.271 0 58.863-16.034 75-40.309 16.137 24.275 43.729 40.309 75 40.309 49.626 0 90-40.374 90-90 0-54.41-16.403-107.656-46.008-152h46.008v45c0 5.717 3.25 10.937 8.38 13.46l61 30c7.497 3.686 16.456.531 20.08-6.84 3.656-7.434.594-16.424-6.84-20.08l-52.62-25.879v-50.661c0-8.284-6.716-15-15-15h-84.298c-7.255-8.061-11.384-11.786-25.279-25.79-.013-.013-.026-.026-.039-.039l-3.29-3.29c.006-.294.013-.587.017-.881h52.89c2.329 0 4.625-.542 6.708-1.583l56.833-28.417h57.459c8.284 0 15-6.716 15-15s-6.716-15-15-15h-61c-2.329 0-4.625.542-6.708 1.584l-56.833 28.416h-52.04c-.832-4.27-1.846-8.521-3.069-12.739 2.74-2.662-5.422 6.226 97.946-110.138l57.412-28.706c7.41-3.705 10.413-12.715 6.708-20.125-3.704-7.41-12.713-10.414-20.124-6.708 0 0-59.773 29.887-59.793 29.897-.563.392-1.364.233-4.866 3.73-.017.019-.035.038-.051.058l-69.21 77.972c-7.682-13.845-22.448-23.24-39.372-23.24-5.259 0-10.305.915-15 2.58v-47.58c0-8.284-6.716-15-15-15s-15 6.716-15 15v47.58c-4.695-1.665-9.741-2.58-15-2.58-16.924 0-31.69 9.395-39.372 23.24l-69.41-78.197c-1.269-1.43-2.8-2.604-4.51-3.459l-60-30c-7.41-3.705-16.42-.701-20.124 6.708-3.705 7.41-.702 16.42 6.708 20.125l57.411 28.706c104.201 117.302 95.253 107.522 97.95 110.142-1.297 4.472-2.106 7.747-3.078 12.736h-52.034l-56.833-28.416c-2.083-1.041-4.379-1.584-6.708-1.584h-61c-8.284 0-15 6.716-15 15s6.715 14.997 14.999 14.997zm241 113.787c-1.341-1.787-26.732-22.532-34.802-62.723 22.649-6.874 47.007-6.869 69.654.015-8.033 40.151-33.455 60.848-34.852 62.708zm61.645-45.929c1.423 2.136 73.355 63.215 73.355 174.142 0 33.084-26.916 60-60 60s-60-26.916-60-60v-100.787c4.211-5.219 33.747-27.347 46.645-73.355zm-31.645-127.858c8.271 0 15 6.729 15 15 0 8.349-6.787 15-15 15-8.271 0-15-6.729-15-15s6.729-15 15-15zm-30 48.505c7.968 7.141 18.483 11.495 30 11.495 1.232 0 2.457-.066 3.676-.167 1.707 6.838 2.776 13.763 3.223 20.694-24.165-6.123-49.611-6.125-73.776-.005.433-6.846 1.459-13.69 3.131-20.449.02-.08.043-.16.063-.24 1.221.101 2.448.167 3.683.167 11.517 0 22.033-4.353 30-11.495zm-30-48.505c8.271 0 15 6.729 15 15s-6.729 15-15 15c-8.202 0-15-6.64-15-15 0-8.271 6.729-15 15-15zm-31.685 127.898c12.827 45.751 42.472 68.129 46.685 73.315v100.787c0 33.084-26.916 60-60 60s-60-26.916-60-60c0-64.052 25.46-126.247 69.853-170.639z"/></svg>