<?xml version="1.0"?>
<svg xmlns="http://www.w3.org/2000/svg" viewBox="0 0 64 64" width="512" height="512"><g id="Layer_18" data-name="Layer 18"><path d="M58,17H57V14a1,1,0,0,0-1-1H55V10a1,1,0,0,0-1-1H48a1,1,0,0,0-1,1v3H46a1,1,0,0,0-1,1v3H37.41l-3.7-3.71A1,1,0,0,0,33,13H6a5,5,0,0,0-5,5V50a5,5,0,0,0,5,5H58a5,5,0,0,0,5-5V22A5,5,0,0,0,58,17Zm-9-6h4v2H49Zm-2,4h8v2H47ZM6,15H32.59l3.7,3.71A1,1,0,0,0,37,19H58a3,3,0,0,1,3,3v5H44A14.94,14.94,0,0,0,20,27H3V18A3,3,0,0,1,6,15ZM19,36A13,13,0,1,1,32,49,13,13,0,0,1,19,36Zm1,9H3V29H18.74A14.91,14.91,0,0,0,20,45Zm27-9a14.87,14.87,0,0,0-1.74-7H61V45H44A14.91,14.91,0,0,0,47,36ZM58,53H6a3,3,0,0,1-3-3V47H21.84a14.9,14.9,0,0,0,20.32,0H61v3A3,3,0,0,1,58,53Z"/><path d="M32,47A11,11,0,1,0,21,36,11,11,0,0,0,32,47Zm0-20a9,9,0,1,1-9,9A9,9,0,0,1,32,27Z"/><path d="M6,25h8a1,1,0,0,0,1-1V18a1,1,0,0,0-1-1H6a1,1,0,0,0-1,1v6A1,1,0,0,0,6,25Zm1-6h6v4H7Z"/><path d="M10,33a3,3,0,1,0,3,3A3,3,0,0,0,10,33Zm0,4a1,1,0,1,1,1-1A1,1,0,0,1,10,37Z"/><path d="M54,33a3,3,0,1,0,3,3A3,3,0,0,0,54,33Zm0,4a1,1,0,1,1,1-1A1,1,0,0,1,54,37Z"/></g></svg>
