<?xml version="1.0"?>
<svg xmlns="http://www.w3.org/2000/svg" id="Solid" viewBox="0 0 512 512" width="512" height="512"><path d="M240.878,328c-2.979,0-5.94-.145-8.878-.414V328a24,24,0,0,0,48,0v-.414c-2.938.269-5.9.414-8.878.414Z"/><rect x="144" y="112" width="224" height="16"/><path d="M332.529,283.756A80.923,80.923,0,0,0,351.49,240H160.51a80.829,80.829,0,0,0,80.368,72h30.244A80.781,80.781,0,0,0,332.529,283.756ZM256,288c-28.615,0-38.738-19.588-39.155-20.422l14.31-7.156-.053-.1c.257.476,6.51,11.682,24.9,11.682s24.641-11.206,24.9-11.682l-.053.1,14.31,7.156C294.738,268.412,284.615,288,256,288Z"/><path d="M368,208a16,16,0,0,0,0-32Z"/><path d="M217.037,32.343A72.12,72.12,0,0,0,152.455,96h31.872C186.427,69.822,198.741,46.874,217.037,32.343Z"/><path d="M295.258,55.181A62.042,62.042,0,0,0,264,34.09V96h47.6A76.635,76.635,0,0,0,295.258,55.181Z"/><path d="M200.4,96H248V34.09a62.042,62.042,0,0,0-31.258,21.091A76.635,76.635,0,0,0,200.4,96Z"/><path d="M327.673,96h31.872a72.12,72.12,0,0,0-64.582-63.657C313.259,46.874,325.573,69.822,327.673,96Z"/><path d="M193.607,183.552a16.862,16.862,0,0,0,26.549,5.207l-28-9.884A16.926,16.926,0,0,0,193.607,183.552Z"/><path d="M264,432v-8H244.971a4.028,4.028,0,0,0-2.828,1.171l-12.486,12.486A8,8,0,0,1,224,440v40h72V440H272A8,8,0,0,1,264,432Z"/><path d="M333.435,305.306A96.7,96.7,0,0,1,296,324.751V328a40,40,0,1,1-80,0v-3.249a96.7,96.7,0,0,1-37.435-19.445A72.134,72.134,0,0,0,120,376v80a24.028,24.028,0,0,0,24,24h64V440H160a8,8,0,0,1-8-8V376h16v48h52.687l10.141-10.142A19.869,19.869,0,0,1,244.971,408H264a16.019,16.019,0,0,1,16,16h64V376h16v56a8,8,0,0,1-8,8H312v40h56a24.028,24.028,0,0,0,24-24V376A72.134,72.134,0,0,0,333.435,305.306Z"/><path d="M144,208V176a16,16,0,0,0,0,32Z"/><path d="M352,144H160v80H352ZM239.812,187.213a32.864,32.864,0,1,1-61.981-21.876,8,8,0,0,1,10.206-4.881l46.894,16.551A8,8,0,0,1,239.812,187.213Zm74.3,20.053a32.864,32.864,0,0,1-41.928-20.053,8,8,0,0,1,4.881-10.206l46.894-16.551a8,8,0,0,1,10.206,4.881A32.9,32.9,0,0,1,314.116,207.266Z"/><path d="M308.792,192.178a16.906,16.906,0,0,0,11.057-13.3l-28,9.884A16.878,16.878,0,0,0,308.792,192.178Z"/></svg>
