<svg height="512pt" viewBox="0 -4 512.00067 512" width="512pt" xmlns="http://www.w3.org/2000/svg"><path d="m430.375 283.078125 11.542969-12.957031 63.488281-71.289063c4.753906-5.339843 7.105469-12.398437 6.5-19.519531-.601562-7.121094-4.109375-13.683594-9.695312-18.144531-11.40625-8.472657-27.429688-6.667969-36.664063 4.132812l-56.738281 63.703125c-1.527344 1.71875-3.679688 2.761719-5.976563 2.894532-2.300781.132812-4.554687-.652344-6.273437-2.183594l-51.84375-46.175782-32.402344-28.851562c-1.71875-1.53125-3.976562-2.316406-6.273438-2.183594-2.300781.132813-4.449218 1.175782-5.980468 2.894532l-28.855469 32.394531-241.429687 271.082031c-9.664063 10.421875-9.605469 26.546875.128906 36.898438 5.070312 5.039062 11.992187 7.777343 19.136718 7.5625 7.144532-.214844 13.890626-3.355469 18.648438-8.691407l236.621094-265.734375c1.53125-1.722656 3.683594-2.761718 5.980468-2.894531 2.296876-.132813 4.554688.648437 6.273438 2.179687l51.84375 46.175782 12.964844 11.542968c14.316406 12.746094 36.253906 11.476563 49.003906-2.835937zm0 0"/><path d="m74.820312 175.539062c11.410157 8.472657 27.429688 6.667969 36.664063-4.132812l56.738281-63.703125c1.53125-1.71875 3.679688-2.761719 5.980469-2.894531 2.296875-.132813 4.554687.652344 6.273437 2.183594l58.324219 51.945312c1.71875 1.53125 3.976563 2.316406 6.273438 2.183594 2.296875-.132813 4.449219-1.175782 5.980469-2.894532l23.082031-25.921874c1.53125-1.71875 2.316406-3.976563 2.183593-6.273438-.132812-2.296875-1.175781-4.449219-2.894531-5.980469l-64.796875-57.707031-12.96875-11.550781c-14.3125-12.746094-36.253906-11.476563-49.003906 2.835937l-11.539062 12.964844-63.488282 71.28125c-4.757812 5.339844-7.109375 12.398438-6.503906 19.519531.605469 7.121094 4.109375 13.683594 9.695312 18.144531zm0 0"/><path d="m274.320312 458.925781c-9.664062 10.421875-9.605468 26.546875.128907 36.898438 5.074219 5.03125 11.996093 7.757812 19.140625 7.535156 7.144531-.226563 13.882812-3.375 18.632812-8.714844l63.535156-71.273437 11.539063-12.953125c6.125-6.875 9.265625-15.902344 8.734375-25.09375-.53125-9.195313-4.695312-17.796875-11.570312-23.921875l-12.957032-11.539063-64.808594-57.71875c-1.71875-1.53125-3.976562-2.316406-6.273437-2.183593-2.296875.136718-4.449219 1.175781-5.976563 2.894531l-23.085937 25.921875c-1.53125 1.71875-2.316406 3.976562-2.183594 6.273437.136719 2.296875 1.175781 4.449219 2.894531 5.980469l58.324219 51.9375c1.71875 1.53125 2.757813 3.683594 2.890625 5.980469.132813 2.296875-.652344 4.554687-2.1875 6.273437zm0 0"/><path d="m335.65625 121.265625c28.628906 25.503906 72.511719 22.964844 98.015625-5.667969 25.5-28.628906 22.964844-72.511718-5.667969-98.015625-28.628906-25.5-72.515625-22.964843-98.015625 5.667969-12.246093 13.75-18.53125 31.800781-17.46875 50.183594 1.0625 18.378906 9.386719 35.585937 23.136719 47.832031zm0 0"/><path d="m8.679688 234.304688h69.421874c4.792969 0 8.679688-3.882813 8.679688-8.675782 0-4.792968-3.886719-8.679687-8.679688-8.679687h-69.421874c-4.792969 0-8.679688 3.886719-8.679688 8.679687 0 4.792969 3.886719 8.675782 8.679688 8.675782zm0 0"/><path d="m34.710938 260.339844c0 4.792968 3.886718 8.679687 8.679687 8.679687h69.421875c4.792969 0 8.679688-3.886719 8.679688-8.679687 0-4.792969-3.886719-8.679688-8.679688-8.679688h-69.421875c-4.792969 0-8.679687 3.886719-8.679687 8.679688zm0 0"/></svg>