<svg id="Capa_1" enable-background="new 0 0 512 512" height="512" viewBox="0 0 512 512" width="512" xmlns="http://www.w3.org/2000/svg"><g><path d="m45 0v512h422v-512zm392 482h-362v-452h362z"/><path d="m256 190.87h136v30h-136z"/><path d="m198.649 80.661-21.213-21.213-30.505 30.505-13.446-13.445-21.213 21.213 34.659 34.659z"/><path d="m198.649 281.18-21.213-21.213-30.505 30.506-13.446-13.446-21.213 21.214 34.659 34.657z"/><path d="m198.649 180.921-21.213-21.213-30.505 30.505-13.446-13.445-21.213 21.213 34.659 34.659z"/><path d="m256 90.61h136v30h-136z"/><path d="m256 391.39h136v30h-136z"/><path d="m196.221 360.779h-91.221v91.221h91.221zm-30 61.221h-31.221v-31.221h31.221z"/><path d="m256 291.13h136v30h-136z"/></g></svg>